
<svg xmlns="http://www.w3.org/2000/svg" version="1.1" xmlns:xlink="http://www.w3.org/1999/xlink" xmlns:svgjs="http://svgjs.dev/svgjs" width="1500" height="1500" viewBox="0 0 1500 1500"><rect width="1500" height="1500" fill="#ffffff"></rect><g transform="matrix(0.6666666666666666,0,0,0.6666666666666666,249.39393939393938,435.9903225806451)"><svg viewBox="0 0 396 248" data-background-color="#ffffff" preserveAspectRatio="xMidYMid meet" height="939" width="1500" xmlns="http://www.w3.org/2000/svg" xmlns:xlink="http://www.w3.org/1999/xlink"><g id="tight-bounds" transform="matrix(1,0,0,1,0.2400000000000091,0.4000000000000057)"><svg viewBox="0 0 395.52 247.2" height="247.2" width="395.52"><g><svg></svg></g><g><svg viewBox="0 0 395.52 247.2" height="247.2" width="395.52"><mask id="b44bfe71-500a-4fe0-b018-928624dfe59d"><rect width="395.52" height="247.2" fill="white"></rect><g transform="matrix(1,0,0,1,103.320352227094,37.08)" id="clone"><svg viewBox="0 0 188.87929554581197 173.04" height="173.04" width="188.87929554581197"><g><svg viewBox="0 0 188.87929554581197 173.04" height="173.04" width="188.87929554581197"><g><svg viewBox="0 0 262.4583986152631 240.44880708150293" height="173.04" width="188.87929554581197"><g><svg viewBox="0 0 262.4583986152631 240.44880708150293" height="240.44880708150293" width="262.4583986152631"><g id="SvgjsG2076"><svg viewBox="0 0 262.4583986152631 240.44880708150293" height="240.44880708150293" width="262.4583986152631" id="SvgjsSvg2075"><g><svg viewBox="0 0 262.4583986152631 171.9706128" height="171.9706128" width="262.4583986152631"><g transform="matrix(1,0,0,1,0,0)"><svg width="262.4583986152631" viewBox="-0.9500000000000002 -39.25 64.71483050847458 42.75" height="171.9706128" data-palette-color="#131313"><path d="M14.55 0.5L14.55 0.5Q11 0.5 8.15-0.88 5.3-2.25 3.68-4.67 2.05-7.1 2.05-10.2L2.05-10.2Q2.05-11.4 2.83-12.13 3.6-12.85 4.65-12.85L4.65-12.85Q5.45-12.85 6.1-12.35 6.75-11.85 6.9-10.85L6.9-10.85Q7.6-4.4 15.2-4.4L15.2-4.4Q18.85-4.4 20.95-6 23.05-7.6 23.05-10.1L23.05-10.1Q23.05-11.6 21.6-12.63 20.15-13.65 17.65-14.45L17.65-14.45 16.1-15Q11.15-16.65 9-17.7L9-17.7Q5.9-19.25 4.38-21.35 2.85-23.45 2.85-26.3L2.85-26.3Q2.85-28.8 4.45-31.1 6.05-33.4 8.93-34.83 11.8-36.25 15.35-36.25L15.35-36.25Q19.05-36.25 21.95-34.9 24.85-33.55 26.45-31.3 28.05-29.05 28.05-26.5L28.05-26.5Q28.05-25.2 27.33-24.48 26.6-23.75 25.55-23.75L25.55-23.75Q24.55-23.75 23.85-24.48 23.15-25.2 23.15-26.4L23.15-26.4Q23.15-27.65 22.08-28.83 21-30 19.18-30.73 17.35-31.45 15.2-31.45L15.2-31.45Q11.5-31.45 9.7-30.18 7.9-28.9 7.8-26.65L7.8-26.65Q7.75-25.45 8.55-24.55 9.35-23.65 11.05-22.7L11.05-22.7Q12.65-21.85 14.45-21.13 16.25-20.4 19.25-19.4L19.25-19.4Q23.25-18.05 25.63-15.88 28-13.7 28-10.25L28-10.25Q28-7.05 26.1-4.6 24.2-2.15 21.13-0.83 18.05 0.5 14.55 0.5L14.55 0.5ZM35.15-2.35L35.15-2.35Q35.15-2.85 34.8-17.1L34.8-17.1Q34.6-26.95 35.1-33.1L35.1-33.1Q35.2-34.15 35.97-34.8 36.75-35.45 37.8-35.4L37.8-35.4Q38.3-35.35 38.75-35.1L38.75-35.1Q44.6-36.3 49.3-35.65L49.3-35.65Q57.55-34.5 60-28.15L60-28.15Q60.95-25.1 60.72-23.18 60.5-21.25 59.57-19.73 58.65-18.2 57.22-17.25 55.8-16.3 54.35-15.73 52.9-15.15 51.25-14.85L51.25-14.85Q46.15-13.8 39.9-14.5L39.9-14.5Q40.15-4.9 40.15-2.35L40.15-2.35Q40.15-1.3 39.42-0.58 38.7 0.15 37.65 0.15 36.6 0.15 35.87-0.58 35.15-1.3 35.15-2.35L35.15-2.35ZM39.8-19.45L39.8-19.45Q40.1-19.5 40.45-19.5L40.45-19.5Q45.9-18.85 50.25-19.75L50.25-19.75Q55.4-20.8 55.75-23.75L55.75-23.75Q55.85-24.45 55.3-26.35L55.3-26.35Q53.95-29.95 48.65-30.7L48.65-30.7Q44.85-31.2 39.95-30.25L39.95-30.25Q39.7-25.85 39.8-19.45L39.8-19.45Z" opacity="1" transform="matrix(1,0,0,1,0,0)" fill="black" class="wordmark-text-0" id="SvgjsPath2074" stroke-width="5" stroke="black" stroke-linejoin="round"></path></svg></g></svg></g><g transform="matrix(1,0,0,1,2.5,194.05990643010418)"><svg viewBox="0 0 257.4583986152631 46.38890065139876" height="46.38890065139876" width="257.4583986152631"><g transform="matrix(1,0,0,1,0,0)"><svg width="257.4583986152631" viewBox="-3.15 -40.5 239.62 44" height="46.38890065139876" data-palette-color="#131313"><path d="M8.5-1.65L-0.15 0.05Q1.35-6.7 2.7-13.15L2.7-13.15Q3.25-15.85 3.85-18.85 4.45-21.85 5-24.75 5.55-27.65 6.05-30.35 6.55-33.05 6.9-35.3L6.9-35.3Q8.35-35.75 9.75-36.08 11.15-36.4 12.63-36.65 14.1-36.9 15.4-36.9L15.4-36.9Q17.65-36.9 19.18-36.15 20.7-35.4 21.65-34.13 22.6-32.85 23-31.15 23.4-29.45 23.4-27.5L23.4-27.5Q23.4-24.7 22.38-22.1 21.35-19.5 19.63-17.48 17.9-15.45 15.68-14.25 13.45-13.05 11.05-13.05L11.05-13.05 10.5-13.05Q10.1-11.35 9.75-9.35 9.4-7.35 9.15-5.65L9.15-5.65Q8.8-3.65 8.5-1.65L8.5-1.65ZM13.8-30.85Q13.25-27.55 12.7-24.6 12.15-21.65 11.5-18.3L11.5-18.3Q12.3-18.5 13.18-19.23 14.05-19.95 14.8-21.13 15.55-22.3 16-23.85 16.45-25.4 16.45-27.1L16.45-27.1Q16.45-28.95 15.63-29.9 14.8-30.85 13.8-30.85L13.8-30.85ZM27.05-1.5L19.35 0.1Q20.75-6.9 22.05-13.55L22.05-13.55Q22.55-16.4 23.1-19.48 23.65-22.55 24.12-25.55 24.6-28.55 25.02-31.38 25.45-34.2 25.7-36.5L25.7-36.5Q26.85-36.45 27.82-36.38 28.8-36.3 29.75-36.25 30.7-36.2 31.67-36.18 32.65-36.15 33.8-36.15L33.8-36.15Q32.95-32.6 32.12-29.05 31.3-25.5 30.6-21.9L30.6-21.9 35.55-22.45Q36.25-26 36.8-29.33 37.35-32.65 38.25-36.2L38.25-36.2Q39.4-36.4 40.8-36.52 42.2-36.65 43.4-36.75 44.6-36.85 45.42-36.93 46.25-37 46.25-37L46.25-37Q45.55-34.75 44.92-32.08 44.3-29.4 43.7-26.53 43.1-23.65 42.55-20.7 42-17.75 41.55-15.1L41.55-15.1Q40.45-8.75 39.5-2.1L39.5-2.1 31.7-1.2Q32.35-4.2 32.85-7.05L32.85-7.05Q33.35-9.45 33.87-12.05 34.4-14.65 34.7-16.5L34.7-16.5 29.85-16.05Q29.5-14.15 29.02-11.65 28.55-9.15 28.15-6.9L28.15-6.9Q27.6-4.2 27.05-1.5L27.05-1.5ZM69-27.05Q69-22.95 68.12-19.33 67.25-15.7 65.8-12.68 64.34-9.65 62.42-7.28 60.5-4.9 58.4-3.23 56.3-1.55 54.15-0.68 52 0.2 50.05 0.2L50.05 0.2Q48.4 0.2 47.05-0.43 45.7-1.05 44.7-2.27 43.7-3.5 43.12-5.43 42.55-7.35 42.55-10.05L42.55-10.05Q42.55-12.85 43.25-15.95 43.95-19.05 45.15-22.1 46.35-25.15 48.1-27.9 49.85-30.65 51.95-32.77 54.05-34.9 56.45-36.15 58.85-37.4 61.45-37.4L61.45-37.4Q63.7-37.4 65.17-36.48 66.65-35.55 67.47-34.08 68.3-32.6 68.65-30.75 69-28.9 69-27.05L69-27.05ZM50-11.35Q50-10.8 50.2-10.2 50.4-9.6 50.75-9.15 51.1-8.7 51.62-8.38 52.15-8.05 52.75-8.05L52.75-8.05Q55-8.05 56.75-9.6 58.5-11.15 59.65-13.4 60.8-15.65 61.42-18.2 62.05-20.75 62.05-22.85L62.05-22.85Q62.05-23.45 61.97-24.15 61.9-24.85 61.67-25.45 61.45-26.05 60.97-26.48 60.5-26.9 59.7-26.9L59.7-26.9Q58.1-26.9 56.75-26.1 55.4-25.3 54.32-23.98 53.25-22.65 52.45-20.98 51.65-19.3 51.07-17.57 50.5-15.85 50.25-14.2 50-12.55 50-11.35L50-11.35ZM82.19-2.45L66.04 0.05 72.59-35.5 88.39-36.85Q88.04-35.75 87.79-34.6L87.79-34.6Q87.54-33.65 87.32-32.63 87.09-31.6 86.94-30.8L86.94-30.8Q86.44-30.75 85.52-30.73 84.59-30.7 83.54-30.68 82.49-30.65 81.42-30.65 80.34-30.65 79.54-30.65L79.54-30.65 77.79-21.7Q79.34-21.8 80.69-21.85L80.69-21.85Q81.79-21.9 82.94-21.9 84.09-21.9 84.64-21.95L84.64-21.95Q84.44-20.55 84.27-19.2 84.09-17.85 83.84-16.45L83.84-16.45Q83.34-16.4 82.22-16.38 81.09-16.35 79.94-16.3L79.94-16.3Q78.64-16.25 77.09-16.2L77.09-16.2 75.39-7 82.69-8.15 82.19-2.45ZM90.24-1.45L82.94 0.25Q84.44-6.95 85.79-13.7L85.79-13.7Q86.29-16.6 86.87-19.7 87.44-22.8 87.94-25.83 88.44-28.85 88.84-31.63 89.24-34.4 89.44-36.65L89.44-36.65Q90.09-36.6 90.54-36.6 90.99-36.6 91.59-36.6L91.59-36.6Q92.29-36.6 93.29-36.63 94.29-36.65 95.29-36.7 96.29-36.75 97.44-36.8L97.44-36.8Q98.14-33.3 98.69-30.05L98.69-30.05Q99.24-27.2 99.82-24.2 100.39-21.2 100.84-19.1L100.84-19.1Q101.04-20.1 101.29-21.43 101.54-22.75 101.84-24.2 102.14-25.65 102.42-27.13 102.69-28.6 102.99-30.05L102.99-30.05Q103.69-33.3 104.44-36.75L104.44-36.75 110.54-37.5Q108.84-29.85 107.54-23L107.54-23Q106.94-20.05 106.37-17.03 105.79-14 105.29-11.23 104.79-8.45 104.44-6.08 104.09-3.7 103.89-2.1L103.89-2.1Q103.74-2.1 102.72-1.88 101.69-1.65 100.37-1.35 99.04-1.05 97.72-0.75 96.39-0.45 95.74-0.2L95.74-0.2Q95.44-4.2 95.09-7.8L95.09-7.8Q94.94-9.35 94.77-10.98 94.59-12.6 94.39-14.1 94.19-15.6 93.99-16.9 93.79-18.2 93.59-19.15L93.59-19.15Q93.44-18.2 93.19-16.95 92.94-15.7 92.69-14.3 92.44-12.9 92.19-11.38 91.94-9.85 91.64-8.45L91.64-8.45Q90.99-5.1 90.24-1.45L90.24-1.45ZM113.79-1Q113.34-1 112.01-0.88 110.69-0.75 109.29-0.58 107.89-0.4 106.76-0.25 105.64-0.1 105.54-0.05L105.54-0.05Q106.04-2.2 106.56-4.83 107.09-7.45 107.64-10.33 108.19-13.2 108.69-16.15 109.19-19.1 109.64-21.85L109.64-21.85Q110.69-28.25 111.74-35L111.74-35 119.54-36.25Q118.39-29.55 117.29-23.1L117.29-23.1Q116.84-20.35 116.36-17.4 115.89-14.45 115.41-11.55 114.94-8.65 114.54-5.93 114.14-3.2 113.79-1L113.79-1ZM136.69-2.3Q136.59-2.25 135.99-2.1 135.39-1.95 134.49-1.7 133.59-1.45 132.51-1.15 131.44-0.85 130.41-0.55 129.39-0.25 128.49 0.03 127.59 0.3 127.09 0.5L127.09 0.5Q126.94-1.5 126.84-3.4L126.84-3.4Q126.74-5.05 126.61-6.7 126.49-8.35 126.44-9.45L126.44-9.45Q125.99-8.35 125.26-6.7 124.54-5.05 123.84-3.45L123.84-3.45Q122.99-1.6 122.09 0.3L122.09 0.3 113.59-0.45Q116.09-4.9 118.59-9.25 121.09-13.6 123.19-18.35L123.19-18.35Q122.89-20.6 122.61-22.35 122.34-24.1 121.99-25.8 121.64-27.5 121.24-29.23 120.84-30.95 120.44-33.15L120.44-33.15 128.44-36.45Q128.69-34.1 129.01-31.25 129.34-28.4 129.59-26L129.59-26Q130.74-28.5 131.86-31 132.99-33.5 134.19-35.95L134.19-35.95 141.44-34Q140.14-31.8 139.09-29.95 138.04-28.1 137.09-26.25 136.14-24.4 135.19-22.48 134.24-20.55 133.14-18.2L133.14-18.2Q133.44-16 133.84-14.05 134.24-12.1 134.71-10.2 135.19-8.3 135.66-6.38 136.14-4.45 136.69-2.3L136.69-2.3ZM159.48-1.6Q157.93-1.6 156.21-1.5 154.48-1.4 152.73-1.2 150.98-1 149.31-0.68 147.63-0.35 146.28 0.1L146.28 0.1Q146.58-2.15 146.98-4.9 147.38-7.65 147.91-10.6 148.43-13.55 148.96-16.55 149.48-19.55 150.03-22.3L150.03-22.3Q151.28-28.85 152.68-35.65L152.68-35.65 161.43-36.8Q160.08-31 158.83-25.5L158.83-25.5Q158.28-23.15 157.73-20.63 157.18-18.1 156.68-15.7 156.18-13.3 155.78-11.05 155.38-8.8 155.13-7.05L155.13-7.05Q156.38-7.15 157.81-7.18 159.23-7.2 160.33-7.2L160.33-7.2Q160.38-6.25 160.48-5.33 160.58-4.4 160.71-3.65 160.83-2.9 160.91-2.33 160.98-1.75 161.03-1.55L161.03-1.55Q160.63-1.55 160.26-1.58 159.88-1.6 159.48-1.6L159.48-1.6ZM188.78-27.05Q188.78-22.95 187.9-19.33 187.03-15.7 185.58-12.68 184.13-9.65 182.2-7.28 180.28-4.9 178.18-3.23 176.08-1.55 173.93-0.68 171.78 0.2 169.83 0.2L169.83 0.2Q168.18 0.2 166.83-0.43 165.48-1.05 164.48-2.27 163.48-3.5 162.9-5.43 162.33-7.35 162.33-10.05L162.33-10.05Q162.33-12.85 163.03-15.95 163.73-19.05 164.93-22.1 166.13-25.15 167.88-27.9 169.63-30.65 171.73-32.77 173.83-34.9 176.23-36.15 178.63-37.4 181.23-37.4L181.23-37.4Q183.48-37.4 184.95-36.48 186.43-35.55 187.25-34.08 188.08-32.6 188.43-30.75 188.78-28.9 188.78-27.05L188.78-27.05ZM169.78-11.35Q169.78-10.8 169.98-10.2 170.18-9.6 170.53-9.15 170.88-8.7 171.4-8.38 171.93-8.05 172.53-8.05L172.53-8.05Q174.78-8.05 176.53-9.6 178.28-11.15 179.43-13.4 180.58-15.65 181.2-18.2 181.83-20.75 181.83-22.85L181.83-22.85Q181.83-23.45 181.75-24.15 181.68-24.85 181.45-25.45 181.23-26.05 180.75-26.48 180.28-26.9 179.48-26.9L179.48-26.9Q177.88-26.9 176.53-26.1 175.18-25.3 174.1-23.98 173.03-22.65 172.23-20.98 171.43-19.3 170.85-17.57 170.28-15.85 170.03-14.2 169.78-12.55 169.78-11.35L169.78-11.35ZM213.43-27.05Q213.43-22.95 212.55-19.33 211.68-15.7 210.23-12.68 208.78-9.65 206.85-7.28 204.93-4.9 202.83-3.23 200.73-1.55 198.58-0.68 196.43 0.2 194.48 0.2L194.48 0.2Q192.83 0.2 191.48-0.43 190.13-1.05 189.13-2.27 188.13-3.5 187.55-5.43 186.98-7.35 186.98-10.05L186.98-10.05Q186.98-12.85 187.68-15.95 188.38-19.05 189.58-22.1 190.78-25.15 192.53-27.9 194.28-30.65 196.38-32.77 198.48-34.9 200.88-36.15 203.28-37.4 205.88-37.4L205.88-37.4Q208.13-37.4 209.6-36.48 211.08-35.55 211.9-34.08 212.73-32.6 213.08-30.75 213.43-28.9 213.43-27.05L213.43-27.05ZM194.43-11.35Q194.43-10.8 194.63-10.2 194.83-9.6 195.18-9.15 195.53-8.7 196.05-8.38 196.58-8.05 197.18-8.05L197.18-8.05Q199.43-8.05 201.18-9.6 202.93-11.15 204.08-13.4 205.23-15.65 205.85-18.2 206.48-20.75 206.48-22.85L206.48-22.85Q206.48-23.45 206.4-24.15 206.33-24.85 206.1-25.45 205.88-26.05 205.4-26.48 204.93-26.9 204.13-26.9L204.13-26.9Q202.53-26.9 201.18-26.1 199.83-25.3 198.75-23.98 197.68-22.65 196.88-20.98 196.08-19.3 195.5-17.57 194.93-15.85 194.68-14.2 194.43-12.55 194.43-11.35L194.43-11.35ZM218.57-1.65L209.92 0.05Q211.42-6.7 212.77-13.15L212.77-13.15Q213.32-15.85 213.92-18.85 214.52-21.85 215.07-24.75 215.62-27.65 216.12-30.35 216.62-33.05 216.97-35.3L216.97-35.3Q218.42-35.75 219.82-36.08 221.22-36.4 222.7-36.65 224.17-36.9 225.47-36.9L225.47-36.9Q227.72-36.9 229.25-36.15 230.77-35.4 231.72-34.13 232.67-32.85 233.07-31.15 233.47-29.45 233.47-27.5L233.47-27.5Q233.47-24.7 232.45-22.1 231.42-19.5 229.7-17.48 227.97-15.45 225.75-14.25 223.52-13.05 221.12-13.05L221.12-13.05 220.57-13.05Q220.17-11.35 219.82-9.35 219.47-7.35 219.22-5.65L219.22-5.65Q218.87-3.65 218.57-1.65L218.57-1.65ZM223.87-30.85Q223.32-27.55 222.77-24.6 222.22-21.65 221.57-18.3L221.57-18.3Q222.37-18.5 223.25-19.23 224.12-19.95 224.87-21.13 225.62-22.3 226.07-23.85 226.52-25.4 226.52-27.1L226.52-27.1Q226.52-28.95 225.7-29.9 224.87-30.85 223.87-30.85L223.87-30.85Z" opacity="1" transform="matrix(1,0,0,1,0,0)" fill="black" class="slogan-text-1" id="SvgjsPath2073" stroke-width="5" stroke="black" stroke-linejoin="round"></path></svg></g></svg></g></svg></g></svg></g><g></g></svg></g></svg></g></svg></g></mask><g mask="url(#b44bfe71-500a-4fe0-b018-928624dfe59d)"><g><path d="M194.397 247.2v0c-15.919 0-30.269-3.094-43.05-9.283-12.78-6.144-22.803-14.641-30.068-25.493-7.309-10.897-10.964-23.296-10.964-37.198v0c0-5.381 1.749-9.709 5.247-12.982 3.453-3.229 7.534-4.843 12.242-4.843v0c3.587 0 6.839 1.121 9.754 3.363 2.915 2.242 4.709 5.605 5.381 10.09v0c3.139 28.924 21.749 43.386 55.83 43.386v0c16.368 0 29.26-3.587 38.678-10.762 9.417-7.175 14.126-16.368 14.125-27.579v0c0-6.727-3.251-12.399-9.753-17.018-6.502-4.574-15.359-8.655-26.57-12.243v0l-10.426-3.699c-22.198-7.399-38.117-13.453-47.759-18.162v0c-13.902-6.951-24.26-15.135-31.076-24.552-6.861-9.417-10.292-20.516-10.292-33.296v0c0-11.211 3.587-21.973 10.763-32.287 7.175-10.314 17.22-18.677 30.135-25.09 12.87-6.368 27.265-9.552 43.184-9.552v0c16.592 0 31.39 3.027 44.395 9.081 13.005 6.054 23.094 14.126 30.269 24.215 7.175 10.09 10.762 20.852 10.763 32.288v0c0 5.83-1.614 10.359-4.843 13.587-3.274 3.274-7.265 4.91-11.973 4.911v0c-4.484 0-8.296-1.637-11.436-4.911-3.139-3.229-4.709-7.534-4.708-12.915v0c0-5.605-2.399-11.054-7.197-16.345-4.843-5.247-11.345-9.507-19.507-12.781-8.206-3.229-17.13-4.843-26.772-4.843v0c-16.592 0-28.924 2.848-36.996 8.543-8.072 5.74-12.332 13.655-12.78 23.745v0c-0.224 5.381 1.457 10.09 5.045 14.125 3.587 4.036 9.193 8.184 16.816 12.444v0c7.175 3.812 14.798 7.332 22.87 10.561 8.072 3.274 18.834 7.153 32.287 11.637v0c17.937 6.054 32.242 13.946 42.916 23.677 10.628 9.776 15.942 22.399 15.942 37.871v0c0 14.35-4.26 27.018-12.781 38.005-8.52 10.987-19.664 19.44-33.431 25.359-13.812 5.964-28.565 8.946-44.26 8.946z" fill="#000000" fill-rule="nonzero" stroke="none" stroke-width="1" stroke-linecap="butt" stroke-linejoin="miter" stroke-miterlimit="10" stroke-dasharray="" stroke-dashoffset="0" font-family="none" font-weight="none" font-size="none" text-anchor="none" style="mix-blend-mode: normal" data-fill-palette-color="tertiary"></path></g></g><g transform="matrix(1,0,0,1,103.320352227094,37.08)"><svg viewBox="0 0 188.87929554581197 173.04" height="173.04" width="188.87929554581197"><g><svg viewBox="0 0 188.87929554581197 173.04" height="173.04" width="188.87929554581197"><g><svg viewBox="0 0 262.4583986152631 240.44880708150293" height="173.04" width="188.87929554581197"><g><svg viewBox="0 0 262.4583986152631 240.44880708150293" height="240.44880708150293" width="262.4583986152631"><g id="textblocktransform"><svg viewBox="0 0 262.4583986152631 240.44880708150293" height="240.44880708150293" width="262.4583986152631" id="textblock"><g><svg viewBox="0 0 262.4583986152631 171.9706128" height="171.9706128" width="262.4583986152631"><g transform="matrix(1,0,0,1,0,0)"><svg width="262.4583986152631" viewBox="-0.9500000000000002 -39.25 64.71483050847458 42.75" height="171.9706128" data-palette-color="#131313"><path d="M14.55 0.5L14.55 0.5Q11 0.5 8.15-0.88 5.3-2.25 3.68-4.67 2.05-7.1 2.05-10.2L2.05-10.2Q2.05-11.4 2.83-12.13 3.6-12.85 4.65-12.85L4.65-12.85Q5.45-12.85 6.1-12.35 6.75-11.85 6.9-10.85L6.9-10.85Q7.6-4.4 15.2-4.4L15.2-4.4Q18.85-4.4 20.95-6 23.05-7.6 23.05-10.1L23.05-10.1Q23.05-11.6 21.6-12.63 20.15-13.65 17.65-14.45L17.65-14.45 16.1-15Q11.15-16.65 9-17.7L9-17.7Q5.9-19.25 4.38-21.35 2.85-23.45 2.85-26.3L2.85-26.3Q2.85-28.8 4.45-31.1 6.05-33.4 8.93-34.83 11.8-36.25 15.35-36.25L15.35-36.25Q19.05-36.25 21.95-34.9 24.85-33.55 26.45-31.3 28.05-29.05 28.05-26.5L28.05-26.5Q28.05-25.2 27.33-24.48 26.6-23.75 25.55-23.75L25.55-23.75Q24.55-23.75 23.85-24.48 23.15-25.2 23.15-26.4L23.15-26.4Q23.15-27.65 22.08-28.83 21-30 19.18-30.73 17.35-31.45 15.2-31.45L15.2-31.45Q11.5-31.45 9.7-30.18 7.9-28.9 7.8-26.65L7.8-26.65Q7.75-25.45 8.55-24.55 9.35-23.65 11.05-22.7L11.05-22.7Q12.65-21.85 14.45-21.13 16.25-20.4 19.25-19.4L19.25-19.4Q23.25-18.05 25.63-15.88 28-13.7 28-10.25L28-10.25Q28-7.05 26.1-4.6 24.2-2.15 21.13-0.83 18.05 0.5 14.55 0.5L14.55 0.5ZM35.15-2.35L35.15-2.35Q35.15-2.85 34.8-17.1L34.8-17.1Q34.6-26.95 35.1-33.1L35.1-33.1Q35.2-34.15 35.97-34.8 36.75-35.45 37.8-35.4L37.8-35.4Q38.3-35.35 38.75-35.1L38.75-35.1Q44.6-36.3 49.3-35.65L49.3-35.65Q57.55-34.5 60-28.15L60-28.15Q60.95-25.1 60.72-23.18 60.5-21.25 59.57-19.73 58.65-18.2 57.22-17.25 55.8-16.3 54.35-15.73 52.9-15.15 51.25-14.85L51.25-14.85Q46.15-13.8 39.9-14.5L39.9-14.5Q40.15-4.9 40.15-2.35L40.15-2.35Q40.15-1.3 39.42-0.58 38.7 0.15 37.65 0.15 36.6 0.15 35.87-0.58 35.15-1.3 35.15-2.35L35.15-2.35ZM39.8-19.45L39.8-19.45Q40.1-19.5 40.45-19.5L40.45-19.5Q45.9-18.85 50.25-19.75L50.25-19.75Q55.4-20.8 55.75-23.75L55.75-23.75Q55.85-24.45 55.3-26.35L55.3-26.35Q53.95-29.95 48.65-30.7L48.65-30.7Q44.85-31.2 39.95-30.25L39.95-30.25Q39.7-25.85 39.8-19.45L39.8-19.45Z" opacity="1" transform="matrix(1,0,0,1,0,0)" fill="#000000" class="wordmark-text-0" data-fill-palette-color="primary" id="text-0"></path></svg></g></svg></g><g transform="matrix(1,0,0,1,2.5,194.05990643010418)"><svg viewBox="0 0 257.4583986152631 46.38890065139876" height="46.38890065139876" width="257.4583986152631"><g transform="matrix(1,0,0,1,0,0)"><svg width="257.4583986152631" viewBox="-3.15 -40.5 239.62 44" height="46.38890065139876" data-palette-color="#131313"><path d="M8.5-1.65L-0.15 0.05Q1.35-6.7 2.7-13.15L2.7-13.15Q3.25-15.85 3.85-18.85 4.45-21.85 5-24.75 5.55-27.65 6.05-30.35 6.55-33.05 6.9-35.3L6.9-35.3Q8.35-35.75 9.75-36.08 11.15-36.4 12.63-36.65 14.1-36.9 15.4-36.9L15.4-36.9Q17.65-36.9 19.18-36.15 20.7-35.4 21.65-34.13 22.6-32.85 23-31.15 23.4-29.45 23.4-27.5L23.4-27.5Q23.4-24.7 22.38-22.1 21.35-19.5 19.63-17.48 17.9-15.45 15.68-14.25 13.45-13.05 11.05-13.05L11.05-13.05 10.5-13.05Q10.1-11.35 9.75-9.35 9.4-7.35 9.15-5.65L9.15-5.65Q8.8-3.65 8.5-1.65L8.5-1.65ZM13.8-30.85Q13.25-27.55 12.7-24.6 12.15-21.65 11.5-18.3L11.5-18.3Q12.3-18.5 13.18-19.23 14.05-19.95 14.8-21.13 15.55-22.3 16-23.85 16.45-25.4 16.45-27.1L16.45-27.1Q16.45-28.95 15.63-29.9 14.8-30.85 13.8-30.85L13.8-30.85ZM27.05-1.5L19.35 0.1Q20.75-6.9 22.05-13.55L22.05-13.55Q22.55-16.4 23.1-19.48 23.65-22.55 24.12-25.55 24.6-28.55 25.02-31.38 25.45-34.2 25.7-36.5L25.7-36.5Q26.85-36.45 27.82-36.38 28.8-36.3 29.75-36.25 30.7-36.2 31.67-36.18 32.65-36.15 33.8-36.15L33.8-36.15Q32.95-32.6 32.12-29.05 31.3-25.5 30.6-21.9L30.6-21.9 35.55-22.45Q36.25-26 36.8-29.33 37.35-32.65 38.25-36.2L38.25-36.2Q39.4-36.4 40.8-36.52 42.2-36.65 43.4-36.75 44.6-36.85 45.42-36.93 46.25-37 46.25-37L46.25-37Q45.55-34.75 44.92-32.08 44.3-29.4 43.7-26.53 43.1-23.65 42.55-20.7 42-17.75 41.55-15.1L41.55-15.1Q40.45-8.75 39.5-2.1L39.5-2.1 31.7-1.2Q32.35-4.2 32.85-7.05L32.85-7.05Q33.35-9.45 33.87-12.05 34.4-14.65 34.7-16.5L34.7-16.5 29.85-16.05Q29.5-14.15 29.02-11.65 28.55-9.15 28.15-6.9L28.15-6.9Q27.6-4.2 27.05-1.5L27.05-1.5ZM69-27.05Q69-22.95 68.12-19.33 67.25-15.7 65.8-12.68 64.34-9.65 62.42-7.28 60.5-4.9 58.4-3.23 56.3-1.55 54.15-0.68 52 0.2 50.05 0.2L50.05 0.2Q48.4 0.2 47.05-0.43 45.7-1.05 44.7-2.27 43.7-3.5 43.12-5.43 42.55-7.35 42.55-10.05L42.55-10.05Q42.55-12.85 43.25-15.95 43.95-19.05 45.15-22.1 46.35-25.15 48.1-27.9 49.85-30.65 51.95-32.77 54.05-34.9 56.45-36.15 58.85-37.4 61.45-37.4L61.45-37.4Q63.7-37.4 65.17-36.48 66.65-35.55 67.47-34.08 68.3-32.6 68.65-30.75 69-28.9 69-27.05L69-27.05ZM50-11.35Q50-10.8 50.2-10.2 50.4-9.6 50.75-9.15 51.1-8.7 51.62-8.38 52.15-8.05 52.75-8.05L52.75-8.05Q55-8.05 56.75-9.6 58.5-11.15 59.65-13.4 60.8-15.65 61.42-18.2 62.05-20.75 62.05-22.85L62.05-22.85Q62.05-23.45 61.97-24.15 61.9-24.85 61.67-25.45 61.45-26.05 60.97-26.48 60.5-26.9 59.7-26.9L59.7-26.9Q58.1-26.9 56.75-26.1 55.4-25.3 54.32-23.98 53.25-22.65 52.45-20.98 51.65-19.3 51.07-17.57 50.5-15.85 50.25-14.2 50-12.55 50-11.35L50-11.35ZM82.19-2.45L66.04 0.05 72.59-35.5 88.39-36.85Q88.04-35.75 87.79-34.6L87.79-34.6Q87.54-33.65 87.32-32.63 87.09-31.6 86.94-30.8L86.94-30.8Q86.44-30.75 85.52-30.73 84.59-30.7 83.54-30.68 82.49-30.65 81.42-30.65 80.34-30.65 79.54-30.65L79.54-30.65 77.79-21.7Q79.34-21.8 80.69-21.85L80.69-21.85Q81.79-21.9 82.94-21.9 84.09-21.9 84.64-21.95L84.64-21.95Q84.44-20.55 84.27-19.2 84.09-17.85 83.84-16.45L83.84-16.45Q83.34-16.4 82.22-16.38 81.09-16.35 79.94-16.3L79.94-16.3Q78.64-16.25 77.09-16.2L77.09-16.2 75.39-7 82.69-8.15 82.19-2.45ZM90.24-1.45L82.94 0.25Q84.44-6.95 85.79-13.7L85.79-13.7Q86.29-16.6 86.87-19.7 87.44-22.8 87.94-25.83 88.44-28.85 88.84-31.63 89.24-34.4 89.44-36.65L89.44-36.65Q90.09-36.6 90.54-36.6 90.99-36.6 91.59-36.6L91.59-36.6Q92.29-36.6 93.29-36.63 94.29-36.65 95.29-36.7 96.29-36.75 97.44-36.8L97.44-36.8Q98.14-33.3 98.69-30.05L98.69-30.05Q99.24-27.2 99.82-24.2 100.39-21.2 100.84-19.1L100.84-19.1Q101.04-20.1 101.29-21.43 101.54-22.75 101.84-24.2 102.14-25.65 102.42-27.13 102.69-28.6 102.99-30.05L102.99-30.05Q103.69-33.3 104.44-36.75L104.44-36.75 110.54-37.5Q108.84-29.85 107.54-23L107.54-23Q106.94-20.05 106.37-17.03 105.79-14 105.29-11.23 104.79-8.45 104.44-6.08 104.09-3.7 103.89-2.1L103.89-2.1Q103.74-2.1 102.72-1.88 101.69-1.65 100.37-1.35 99.04-1.05 97.72-0.75 96.39-0.45 95.74-0.2L95.74-0.2Q95.44-4.2 95.09-7.8L95.09-7.8Q94.94-9.35 94.77-10.98 94.59-12.6 94.39-14.1 94.19-15.6 93.99-16.9 93.79-18.2 93.59-19.15L93.59-19.15Q93.44-18.2 93.19-16.95 92.94-15.7 92.69-14.3 92.44-12.9 92.19-11.38 91.94-9.85 91.64-8.45L91.64-8.45Q90.99-5.1 90.24-1.45L90.24-1.45ZM113.79-1Q113.34-1 112.01-0.88 110.69-0.75 109.29-0.58 107.89-0.4 106.76-0.25 105.64-0.1 105.54-0.05L105.54-0.05Q106.04-2.2 106.56-4.83 107.09-7.45 107.64-10.33 108.19-13.2 108.69-16.15 109.19-19.1 109.64-21.85L109.64-21.85Q110.69-28.25 111.74-35L111.74-35 119.54-36.25Q118.39-29.55 117.29-23.1L117.29-23.1Q116.84-20.35 116.36-17.4 115.89-14.45 115.41-11.55 114.94-8.65 114.54-5.93 114.14-3.2 113.79-1L113.79-1ZM136.69-2.3Q136.59-2.25 135.99-2.1 135.39-1.95 134.49-1.7 133.59-1.45 132.51-1.15 131.44-0.85 130.41-0.55 129.39-0.25 128.49 0.03 127.59 0.3 127.09 0.5L127.09 0.5Q126.94-1.5 126.84-3.4L126.84-3.4Q126.74-5.05 126.61-6.7 126.49-8.35 126.44-9.45L126.44-9.45Q125.99-8.35 125.26-6.7 124.54-5.05 123.84-3.45L123.84-3.45Q122.99-1.6 122.09 0.3L122.09 0.3 113.59-0.45Q116.09-4.9 118.59-9.25 121.09-13.6 123.19-18.35L123.19-18.35Q122.89-20.6 122.61-22.35 122.34-24.1 121.99-25.8 121.64-27.5 121.24-29.23 120.84-30.95 120.44-33.15L120.44-33.15 128.44-36.45Q128.69-34.1 129.01-31.25 129.34-28.4 129.59-26L129.59-26Q130.74-28.5 131.86-31 132.99-33.5 134.19-35.95L134.19-35.95 141.44-34Q140.14-31.8 139.09-29.95 138.04-28.1 137.09-26.25 136.14-24.4 135.19-22.48 134.24-20.55 133.14-18.2L133.14-18.2Q133.44-16 133.84-14.05 134.24-12.1 134.71-10.2 135.19-8.3 135.66-6.38 136.14-4.45 136.69-2.3L136.69-2.3ZM159.48-1.6Q157.93-1.6 156.21-1.5 154.48-1.4 152.73-1.2 150.98-1 149.31-0.68 147.63-0.35 146.28 0.1L146.28 0.1Q146.58-2.15 146.98-4.9 147.38-7.65 147.91-10.6 148.43-13.55 148.96-16.55 149.48-19.55 150.03-22.3L150.03-22.3Q151.28-28.85 152.68-35.65L152.68-35.65 161.43-36.8Q160.08-31 158.83-25.5L158.83-25.5Q158.28-23.15 157.73-20.63 157.18-18.1 156.68-15.7 156.18-13.3 155.78-11.05 155.38-8.8 155.13-7.05L155.13-7.05Q156.38-7.15 157.81-7.18 159.23-7.2 160.33-7.2L160.33-7.2Q160.38-6.25 160.48-5.33 160.58-4.4 160.71-3.65 160.83-2.9 160.91-2.33 160.98-1.75 161.03-1.55L161.03-1.55Q160.63-1.55 160.26-1.58 159.88-1.6 159.48-1.6L159.48-1.6ZM188.78-27.05Q188.78-22.95 187.9-19.33 187.03-15.7 185.58-12.68 184.13-9.65 182.2-7.28 180.28-4.9 178.18-3.23 176.08-1.55 173.93-0.68 171.78 0.2 169.83 0.2L169.83 0.2Q168.18 0.2 166.83-0.43 165.48-1.05 164.48-2.27 163.48-3.5 162.9-5.43 162.33-7.35 162.33-10.05L162.33-10.05Q162.33-12.85 163.03-15.95 163.73-19.05 164.93-22.1 166.13-25.15 167.88-27.9 169.63-30.65 171.73-32.77 173.83-34.9 176.23-36.15 178.63-37.4 181.23-37.4L181.23-37.4Q183.48-37.4 184.95-36.48 186.43-35.55 187.25-34.08 188.08-32.6 188.43-30.75 188.78-28.9 188.78-27.05L188.78-27.05ZM169.78-11.35Q169.78-10.8 169.98-10.2 170.18-9.6 170.53-9.15 170.88-8.7 171.4-8.38 171.93-8.05 172.53-8.05L172.53-8.05Q174.78-8.05 176.53-9.6 178.28-11.15 179.43-13.4 180.58-15.65 181.2-18.2 181.83-20.75 181.83-22.85L181.83-22.85Q181.83-23.45 181.75-24.15 181.68-24.85 181.45-25.45 181.23-26.05 180.75-26.48 180.28-26.9 179.48-26.9L179.48-26.9Q177.88-26.9 176.53-26.1 175.18-25.3 174.1-23.98 173.03-22.65 172.23-20.98 171.43-19.3 170.85-17.57 170.28-15.85 170.03-14.2 169.78-12.55 169.78-11.35L169.78-11.35ZM213.43-27.05Q213.43-22.95 212.55-19.33 211.68-15.7 210.23-12.68 208.78-9.65 206.85-7.28 204.93-4.9 202.83-3.23 200.73-1.55 198.58-0.68 196.43 0.2 194.48 0.2L194.48 0.2Q192.83 0.2 191.48-0.43 190.13-1.05 189.13-2.27 188.13-3.5 187.55-5.43 186.98-7.35 186.98-10.05L186.98-10.05Q186.98-12.85 187.68-15.95 188.38-19.05 189.58-22.1 190.78-25.15 192.53-27.9 194.28-30.65 196.38-32.77 198.48-34.9 200.88-36.15 203.28-37.4 205.88-37.4L205.88-37.4Q208.13-37.4 209.6-36.48 211.08-35.55 211.9-34.08 212.73-32.6 213.08-30.75 213.43-28.9 213.43-27.05L213.43-27.05ZM194.43-11.35Q194.43-10.8 194.63-10.2 194.83-9.6 195.18-9.15 195.53-8.7 196.05-8.38 196.58-8.05 197.18-8.05L197.18-8.05Q199.43-8.05 201.18-9.6 202.93-11.15 204.08-13.4 205.23-15.65 205.85-18.2 206.48-20.75 206.48-22.85L206.48-22.85Q206.48-23.45 206.4-24.15 206.33-24.85 206.1-25.45 205.88-26.05 205.4-26.48 204.93-26.9 204.13-26.9L204.13-26.9Q202.53-26.9 201.18-26.1 199.83-25.3 198.75-23.98 197.68-22.65 196.88-20.98 196.08-19.3 195.5-17.57 194.93-15.85 194.68-14.2 194.43-12.55 194.43-11.35L194.43-11.35ZM218.57-1.65L209.92 0.05Q211.42-6.7 212.77-13.15L212.77-13.15Q213.32-15.85 213.92-18.85 214.52-21.85 215.07-24.75 215.62-27.65 216.12-30.35 216.62-33.05 216.97-35.3L216.97-35.3Q218.42-35.75 219.82-36.08 221.22-36.4 222.7-36.65 224.17-36.9 225.47-36.9L225.47-36.9Q227.72-36.9 229.25-36.15 230.77-35.4 231.72-34.13 232.67-32.85 233.07-31.15 233.47-29.45 233.47-27.5L233.47-27.5Q233.47-24.7 232.45-22.1 231.42-19.5 229.7-17.48 227.97-15.45 225.75-14.25 223.52-13.05 221.12-13.05L221.12-13.05 220.57-13.05Q220.17-11.35 219.82-9.35 219.47-7.35 219.22-5.65L219.22-5.65Q218.87-3.65 218.57-1.65L218.57-1.65ZM223.87-30.85Q223.32-27.55 222.77-24.6 222.22-21.65 221.57-18.3L221.57-18.3Q222.37-18.5 223.25-19.23 224.12-19.95 224.87-21.13 225.62-22.3 226.07-23.85 226.52-25.4 226.52-27.1L226.52-27.1Q226.52-28.95 225.7-29.9 224.87-30.85 223.87-30.85L223.87-30.85Z" opacity="1" transform="matrix(1,0,0,1,0,0)" fill="#000000" class="slogan-text-1" data-fill-palette-color="secondary" id="text-1"></path></svg></g></svg></g></svg></g></svg></g><g></g></svg></g></svg></g></svg></g></svg></g><defs></defs></svg><rect width="395.52" height="247.2" fill="none" stroke="none" visibility="hidden"></rect></g></svg></g></svg>