<?xml version="1.0" encoding="UTF-8"?>
<svg version="1.1" xmlns="http://www.w3.org/2000/svg" width="1500" height="1500">
<path d="M0 0 C495 0 990 0 1500 0 C1500 495 1500 990 1500 1500 C1005 1500 510 1500 0 1500 C0 1005 0 510 0 0 Z " fill="#FEFEFE" transform="translate(0,0)"/>
<path d="M0 0 C14.83143029 14.08016503 24.09733798 33.8499191 24.9296875 54.2734375 C25.27758755 72.33724773 22.00566024 87.4766511 10 101.5625 C0.10443555 111.62399617 -12.35880078 117.6083734 -25.375 122.625 C-26.54675781 123.08777344 -27.71851563 123.55054688 -28.92578125 124.02734375 C-53.99685656 132.88704705 -80.9344021 132.13182663 -107.13671875 131.86328125 C-108.46342087 131.85192139 -108.46342087 131.85192139 -109.81692505 131.84033203 C-115.71356957 131.7523381 -121.5170544 131.29931595 -127.375 130.625 C-127.30933838 131.33793213 -127.24367676 132.05086426 -127.17602539 132.78540039 C-125.76150174 149.41027476 -125.72505757 166.12344622 -125.42828369 182.79742432 C-125.37576574 185.5843651 -125.31478098 188.37100038 -125.25146484 191.15771484 C-125.15400051 195.53037863 -125.08379355 199.90269535 -125.03396606 204.27615356 C-125.01152676 205.91047274 -124.98049775 207.54469914 -124.94039917 209.17868042 C-124.58019152 224.40556854 -124.58019152 224.40556854 -129.03198242 230.23022461 C-133.76163503 235.14215068 -136.88688872 236.79135375 -143.625 236.9375 C-149.0820896 236.88936691 -152.28042242 236.50959924 -156.375 232.625 C-162.35425622 226.14747243 -162.70446956 220.3543895 -162.87744141 211.88964844 C-162.90698001 210.80216246 -162.93651861 209.71467648 -162.96695232 208.59423637 C-163.06272035 204.97445354 -163.1448346 201.35450005 -163.2265625 197.734375 C-163.29055254 195.18181775 -163.35519602 192.62927681 -163.42045593 190.07675171 C-163.59180316 183.25258767 -163.75000384 176.42818887 -163.90402603 169.60361481 C-163.99939564 165.38263214 -164.09852137 161.16174231 -164.1980896 156.94085693 C-167.98814144 -4.28743373 -167.98814144 -4.28743373 -158.6875 -16.4375 C-154.35901009 -20.72416875 -149.80879855 -22.51447465 -143.75 -22.625 C-141.40750718 -22.57426008 -139.38221263 -22.37677487 -137.10302734 -21.81591797 C-133.99520988 -21.31361635 -131.61781286 -21.60380076 -128.515625 -22.1171875 C-126.84113281 -22.38595703 -126.84113281 -22.38595703 -125.1328125 -22.66015625 C-123.97523438 -22.85480469 -122.81765625 -23.04945313 -121.625 -23.25 C-80.17041893 -30.0343276 -33.43944404 -28.53839576 0 0 Z " fill="#020202" transform="translate(939.375,582.375)"/>
<path d="M0 0 C0.66628418 0.35320312 1.33256836 0.70640625 2.01904297 1.0703125 C34.14658622 18.17628717 61.4195436 43.34723761 78 76 C78.49089111 76.95519531 78.49089111 76.95519531 78.99169922 77.9296875 C83.43421711 86.66760529 86.69228064 95.44860598 89 105 C89.44859375 106.85238281 89.44859375 106.85238281 89.90625 108.7421875 C91.2527287 114.63926551 92.15355999 119.92670226 92 126 C89.33793195 123.52690592 87.34083706 120.77730695 85.25 117.8125 C75.91323733 104.9470151 64.95392125 95.6287874 51 88 C50.33742188 87.63390625 49.67484375 87.2678125 48.9921875 86.890625 C40.09618596 82.20851893 30.61075908 79.43351469 20.8125 77.375 C19.89919922 77.17132812 18.98589844 76.96765625 18.04492188 76.7578125 C6.77935058 74.33877723 -4.35578592 72.76037499 -15.875 73.05078125 C-16.62328568 73.06870728 -17.37157135 73.0866333 -18.14253235 73.10510254 C-21.1933276 73.1866319 -24.24231507 73.27753862 -27.29101562 73.41821289 C-39.61857884 73.9537934 -48.06185413 71.58564421 -59 66 C-65.0741073 63.25878455 -71.05176536 61.53323401 -77.5 59.9375 C-78.48742187 59.68162109 -79.47484375 59.42574219 -80.4921875 59.16210938 C-96.16309873 55.24438157 -111.37786509 54.62674681 -127.4375 54.6875 C-128.96793945 54.69073273 -128.96793945 54.69073273 -130.52929688 54.69403076 C-156.69929733 54.7828453 -184.53208454 55.88467158 -207.72851562 69.4597168 C-214.08789558 73.06987976 -219.50033159 72.44820726 -226.5 71 C-249.36500208 67.39112294 -275.01381806 69.83688045 -296 80 C-296.66435059 80.31984863 -297.32870117 80.63969727 -298.01318359 80.96923828 C-306.2785657 84.99946592 -313.958307 89.1865777 -320.921875 95.2734375 C-323.15586988 97.12950092 -325.47992873 98.5637356 -328 100 C-324.59962424 76.19736965 -304.94261047 52.91993525 -289 36 C-288.43023438 35.38898438 -287.86046875 34.77796875 -287.2734375 34.1484375 C-270.25672328 16.4865398 -248.08909284 3.2825032 -226 -7 C-225.28392578 -7.33386719 -224.56785156 -7.66773438 -223.83007812 -8.01171875 C-210.61939682 -14.07678088 -197.03344048 -18.2766263 -183 -22 C-181.79472656 -22.32871094 -180.58945312 -22.65742188 -179.34765625 -22.99609375 C-121.42391255 -37.09354966 -52.2739544 -28.12247609 0 0 Z " fill="#010101" transform="translate(878,466)"/>
<path d="M0 0 C1.08560937 3.2568281 0.91254076 4.36906078 0.22265625 7.640625 C0.03896484 8.54683594 -0.14472656 9.45304688 -0.33398438 10.38671875 C-0.53314453 11.33160156 -0.73230469 12.27648437 -0.9375 13.25 C-2.20052783 19.2608453 -3.28058767 24.84407657 -3 31 C9.06553236 30.26865792 9.06553236 30.26865792 20 26 C20.66 26.66 21.32 27.32 22 28 C24.65853994 28.03540786 27.17138755 27.95225794 29.8125 27.75 C30.52470703 27.71003906 31.23691406 27.67007813 31.97070312 27.62890625 C36.03693409 27.35055186 39.2835297 26.62804085 43 25 C43.99 25 44.98 25 46 25 C46 25.66 46 26.32 46 27 C53.04851437 30.79535389 59.42413661 32.16222607 67.25 30 C74.96925382 27.23272033 81.28121378 21.71878622 87 16 C87 20.62 87 25.24 87 30 C92.53924736 30.07485469 97.54289542 29.92886886 103 29 C109.8494148 28.14554584 114.57776407 29.87005468 120.8125 32.63671875 C130.39004482 36.73299711 140.33813184 38.52746895 150.5625 40.1875 C151.59076904 40.35451416 152.61903809 40.52152832 153.6784668 40.69360352 C189.56904722 46.22947696 229.09354444 44.58115241 262.8203125 30.30078125 C272.51121076 26.33632287 272.51121076 26.33632287 277.8125 27.75 C278.8953125 28.36875 278.8953125 28.36875 280 29 C284.71303462 31.63811372 288.69356575 31.901747 294 31 C302.29022349 27.89001605 309.23213042 23.83348771 315 17 C315.99187504 15.99194052 316.98962279 14.98951397 318 14 C318.21914063 14.73605469 318.43828125 15.47210937 318.6640625 16.23046875 C320.73287078 22.5966796 322.30015874 26.36180345 328 30 C334.88902578 32.29634193 341.39760333 31.47747516 347.83203125 28.27734375 C351.45764289 26.14117257 354.72414583 23.63050388 358 21 C359.33025184 19.99590448 360.66278025 18.99479703 362 18 C361.98259766 19.17369141 361.98259766 19.17369141 361.96484375 20.37109375 C361.95582031 21.38300781 361.94679688 22.39492188 361.9375 23.4375 C361.92009766 24.95150391 361.92009766 24.95150391 361.90234375 26.49609375 C361.71387324 28.94021067 361.71387324 28.94021067 363 30 C366.26394266 30.12553626 369.29004598 30.1419908 372.5 29.5 C375.69307239 28.86138552 378.75292759 28.93633191 382 29 C380.43661616 34.01826912 377.42701455 37.52401719 374.125 41.5 C373.54419678 42.20415039 372.96339355 42.90830078 372.36499023 43.63378906 C330.86785786 93.54075158 269.60535002 120.3820574 205.5859375 126.55859375 C144.65548307 131.35418006 83.3610592 119.29367495 34 82 C33.11570312 81.34128906 32.23140625 80.68257812 31.3203125 80.00390625 C17.56059516 69.27634546 4.83423139 56.41912454 -4.77978516 41.83544922 C-6.0491785 39.92602562 -7.37280343 38.06155169 -8.69921875 36.19140625 C-13.528522 29.12021648 -16.06050754 23.70646318 -14.6328125 14.90234375 C-14.42398438 13.94457031 -14.21515625 12.98679687 -14 12 C-13.66178413 10.00081988 -13.32706365 8.00103485 -13 6 C-12.39671875 5.81824219 -11.7934375 5.63648438 -11.171875 5.44921875 C-5.14414802 3.58012094 -5.14414802 3.58012094 0 0 Z " fill="#010101" transform="translate(563,935)"/>
<path d="M0 0 C0.71533905 0.00176239 1.4306781 0.00352478 2.16769409 0.00534058 C29.24187465 0.1532499 54.42382275 8.60045229 74.1484375 27.6796875 C85.06552554 38.97214819 92.24950614 53.27573764 92.1875 69.0625 C92.20361328 69.88685547 92.21972656 70.71121094 92.23632812 71.56054688 C92.24037926 76.62851698 91.69118688 80.12000111 88.875 84.5 C84.09272406 89.0743509 80.56477494 91.2396992 74 91.875 C68.77161533 91.71745922 65.04412372 89.64670384 61.36328125 86.00390625 C57.74997622 81.85222912 56.84077796 78.79341732 56.625 73.4375 C55.925557 65.17532959 52.12083721 57.0876108 45.875 51.5 C27.19459497 36.3966938 5.04812567 35.18412192 -18.125 36.5 C-23.35528551 37.15910889 -28.22473281 38.55863732 -33.125 40.5 C-33.92421875 40.81195312 -34.7234375 41.12390625 -35.546875 41.4453125 C-37.5353586 42.33489727 -39.30006334 43.31421166 -41.125 44.5 C-41.72570312 44.88414062 -42.32640625 45.26828125 -42.9453125 45.6640625 C-49.0601442 50.19062623 -53.14051491 56.96793526 -54.47509766 64.46728516 C-55.20214482 70.9005046 -55.28525396 77.61050159 -52 83.375 C-35.62363006 103.19902677 -5.49652564 111.19496503 17.92837524 119.39559937 C22.80848379 121.1088055 27.66378097 122.88266559 32.5078125 124.6953125 C33.16068741 124.93881439 33.81356232 125.18231628 34.48622131 125.43319702 C40.07703053 127.5367955 45.51531341 129.86502471 50.875 132.5 C51.75285156 132.92667969 52.63070312 133.35335937 53.53515625 133.79296875 C71.03156992 142.7803352 83.68971443 155.30829688 90.75390625 173.80078125 C95.36326551 190.40092124 91.35982361 209.96977833 83.2421875 224.703125 C79.63130998 230.77526958 74.93250574 235.62082662 69.875 240.5 C68.70517578 241.69882812 68.70517578 241.69882812 67.51171875 242.921875 C46.32823266 263.57132363 15.3943222 269.00449467 -13.015625 268.71875 C-35.21883807 268.16745979 -56.58744037 260.48629775 -73.125 245.5 C-73.96675781 244.75105469 -74.80851563 244.00210938 -75.67578125 243.23046875 C-87.20557287 232.40051274 -96.36437058 216.70305738 -97.23168945 200.5078125 C-97.29511701 198.170848 -97.31060244 195.83779267 -97.3125 193.5 C-97.32474609 192.7059375 -97.33699219 191.911875 -97.34960938 191.09375 C-97.36314789 185.67834588 -97.13497593 181.62722453 -93.25 177.515625 C-92.54875 176.93296875 -91.8475 176.3503125 -91.125 175.75 C-90.42375 175.15703125 -89.7225 174.5640625 -89 173.953125 C-84.50834537 170.47209266 -79.59716662 171.08144901 -74.125 171.5 C-68.9294029 173.2318657 -66.22330455 176.02467121 -63.125 180.5 C-61.99554255 183.59114671 -61.29053792 186.58257956 -60.70703125 189.81640625 C-58.44610863 202.16452209 -54.05624193 213.07246594 -43.8125 220.8125 C-25.65374148 233.11359448 -2.50783274 234.15612973 18.6875 230.375 C31.20206982 227.55628563 42.43964664 221.4703756 49.79296875 210.6875 C54.22679356 202.93620532 55.82851405 195.41328352 54.875 186.5 C52.61328038 178.47593741 46.63568546 173.64508413 39.62890625 169.6484375 C32.61161536 165.95584555 25.38408617 163.03224696 17.875 160.5 C15.20570909 159.56993348 12.54047036 158.62845084 9.875 157.6875 C9.15594482 157.43476318 8.43688965 157.18202637 7.69604492 156.92163086 C1.42916262 154.71314389 -4.80538204 152.42141532 -11.03271484 150.10400391 C-14.84315284 148.69051692 -18.65741222 147.30504603 -22.5078125 146.00390625 C-41.91666824 139.43584822 -59.3191175 131.0303077 -74.125 116.5 C-74.83527344 115.81421875 -75.54554688 115.1284375 -76.27734375 114.421875 C-87.26564444 103.03284933 -91.48226455 89.32214973 -91.5 73.8125 C-91.52449219 72.70455078 -91.54898438 71.59660156 -91.57421875 70.45507812 C-91.61353062 59.24464367 -88.59218623 49.74889879 -82.5 40.375 C-82.06324951 39.69614746 -81.62649902 39.01729492 -81.17651367 38.31787109 C-68.5984974 19.33908726 -46.26638695 6.52711322 -24.19921875 1.87890625 C-16.16125368 0.27782517 -8.17818698 -0.05435162 0 0 Z " fill="#010101" transform="translate(633.125,553.5)"/>
<path d="M0 0 C2.3893541 -0.04294856 4.77792461 -0.07420926 7.16748047 -0.09887695 C8.1737574 -0.11876049 8.1737574 -0.11876049 9.20036316 -0.13904572 C15.26480926 -0.18591965 19.74228579 1.19101991 25.125 3.8125 C26.44032715 4.41602295 26.44032715 4.41602295 27.78222656 5.03173828 C30.54139819 6.31695984 33.27215085 7.64969036 36 9 C36.8962207 9.43844238 37.79244141 9.87688477 38.71582031 10.32861328 C61.91761592 21.77835932 83.34276985 36.02568457 102 54 C102.78761719 54.72445312 103.57523438 55.44890625 104.38671875 56.1953125 C115.44833315 66.65848005 122.77327303 79.26350686 129 93 C129.70769531 94.49660156 129.70769531 94.49660156 130.4296875 96.0234375 C138.61582356 114.98883348 139.8511136 135.63874381 139 156 C137.03466797 155.48933919 135.06933594 154.97867839 133.10400391 154.46801758 C125.2154831 152.71328395 116.54938255 154.50833187 109 157 C106.61162365 158.96801574 106.61162365 158.96801574 105 161 C104.505 160.236875 104.01 159.47375 103.5 158.6875 C99.40656466 154.28705701 95.0822769 153.31234153 89.25 152.4375 C81.04399905 152.76184786 72.72412739 158.41548547 67 164 C65.25893459 165.9546361 63.62503608 167.94480731 62 170 C60.981712 167.96799031 59.96766307 165.93422791 58.96484375 163.89453125 C58.62582031 163.20746094 58.28679688 162.52039063 57.9375 161.8125 C57.59589844 161.11769531 57.25429688 160.42289063 56.90234375 159.70703125 C56.11740208 158.01917244 56.11740208 158.01917244 55 157 C54.90470767 155.27838524 54.81573999 153.55615183 54.76123047 151.83276367 C54.21406206 135.91233719 48.66991761 122.48747278 36.9453125 111.37890625 C24.60350932 101.41052676 10.42730081 94.39777281 -4 88 C-3.71125 87.360625 -3.4225 86.72125 -3.125 86.0625 C0.41872926 76.41568145 0.26305924 67.0460784 0.1953125 56.93359375 C0.1915763 55.28736036 0.1887322 53.64112473 0.18673706 51.99488831 C0.17914833 47.68933838 0.15954146 43.38392618 0.1373291 39.07843018 C0.11676739 34.67405052 0.10771339 30.26964833 0.09765625 25.86523438 C0.07629048 17.24342681 0.04221294 8.6217306 0 0 Z " fill="#000000" transform="translate(831,733)"/>
<path d="M0 0 C8.11204251 7.48803924 11.86279438 15.64570396 14.4375 26.25 C14.62957031 26.95898438 14.82164062 27.66796875 15.01953125 28.3984375 C16.52074654 35.04868094 15.2373111 41.16296128 12.4375 47.25 C5.074284 58.294824 -8.28218357 63.24948389 -20.77563477 65.91845703 C-24.24678034 66.61157767 -27.72603759 67.242928 -31.21435547 67.84326172 C-33.19014443 68.18550173 -35.16034759 68.55976892 -37.12890625 68.94140625 C-58.20643577 72.4999502 -80.43818753 70.48802491 -101.5625 68.25 C-101.68255363 41.89545697 -101.52399304 15.58877197 -100.5625 -10.75 C-97.77151043 -11.23340669 -94.97980344 -11.71179062 -92.1875 -12.1875 C-91.41277344 -12.32220703 -90.63804687 -12.45691406 -89.83984375 -12.59570312 C-60.97997132 -17.48518564 -24.23406507 -19.04105112 0 0 Z " fill="#FDFDFD" transform="translate(912.5625,607.75)"/>
<path d="M0 0 C8.87395509 6.60699513 14.06257458 16.18387568 15.67016602 27.07397461 C15.96081799 29.60326516 16.21402959 32.13293803 16.44921875 34.66796875 C16.57876953 35.97991211 16.57876953 35.97991211 16.7109375 37.31835938 C16.92111572 39.45517129 17.12347393 41.59274997 17.32421875 43.73046875 C14.55392289 44.23361438 11.78305355 44.73310713 9.01171875 45.23046875 C8.22603516 45.37355469 7.44035156 45.51664063 6.63085938 45.6640625 C5.49487305 45.86708984 5.49487305 45.86708984 4.3359375 46.07421875 C3.63944092 46.19990234 2.94294434 46.32558594 2.2253418 46.45507812 C0.32421875 46.73046875 0.32421875 46.73046875 -2.67578125 46.73046875 C-3.00578125 46.40046875 -3.33578125 46.07046875 -3.67578125 45.73046875 C-5.2375087 45.64361272 -6.80307469 45.62344656 -8.3671875 45.6328125 C-9.78354492 45.63764648 -9.78354492 45.63764648 -11.22851562 45.64257812 C-12.71834961 45.65514648 -12.71834961 45.65514648 -14.23828125 45.66796875 C-15.23537109 45.67248047 -16.23246094 45.67699219 -17.25976562 45.68164062 C-19.73182974 45.69346868 -22.20377643 45.70995026 -24.67578125 45.73046875 C-25.33578125 47.05046875 -25.99578125 48.37046875 -26.67578125 49.73046875 C-28.03703125 48.77140625 -28.03703125 48.77140625 -29.42578125 47.79296875 C-36.72917059 43.15812551 -44.4852744 44.32521946 -52.61328125 46.10546875 C-57.12393783 47.04062843 -57.12393783 47.04062843 -60.67578125 49.73046875 C-61.40860317 53.16373944 -61.98603148 56.58670234 -62.53125 60.05273438 C-62.8528516 61.95640834 -63.25829112 63.84550081 -63.67578125 65.73046875 C-64.66578125 66.22546875 -64.66578125 66.22546875 -65.67578125 66.73046875 C-68.8254887 48.67589571 -70.90966486 29.07837133 -60.86328125 12.91796875 C-46.16588673 -7.38715984 -21.63142125 -13.75310142 0 0 Z " fill="#020202" transform="translate(596.67578125,842.26953125)"/>
<path d="M0 0 C0.66 5.28 1.32 10.56 2 16 C4.5864584 13.4135416 5.62271883 10.7061452 7.125 7.375 C7.66382813 6.18648437 8.20265625 4.99796875 8.7578125 3.7734375 C9.16773438 2.85820313 9.57765625 1.94296875 10 1 C14.86833214 1.64872133 19.32087073 2.56761349 24 4 C22.38997967 9.61677546 19.75490257 14.50875238 17 19.625 C16.1039009 21.30454573 15.20805828 22.98422833 14.3125 24.6640625 C13.91675781 25.40092285 13.52101563 26.1377832 13.11328125 26.89697266 C12.74589844 27.59097168 12.37851562 28.2849707 12 29 C11.62472168 29.69359619 11.24944336 30.38719238 10.86279297 31.10180664 C7.40147286 38.71690678 11.91837838 50.07223858 14.2578125 57.6875 C14.99268995 60.96737409 14.95177254 62.81939302 14 66 C11.73050898 66.67155349 9.4596039 67.3373963 7.1875 68 C5.92292969 68.37125 4.65835938 68.7425 3.35546875 69.125 C0 70 0 70 -3 70 C-4.7182542 64.8452374 -4.62573804 59.40006537 -5 54 C-7.31 59.28 -9.62 64.56 -12 70 C-18.58200172 70.11348279 -25.03940491 69.72798509 -31.6015625 69.22265625 C-35.75115605 68.95078633 -39.84353475 68.92833681 -44 69 C-43.18496881 61.79340845 -41.95791621 54.6749821 -40.71484375 47.53125 C-40.49429825 46.25519897 -40.27375275 44.97914795 -40.04652405 43.66442871 C-39.46455794 40.29736304 -38.88037914 36.93068505 -38.29571533 33.56408691 C-37.69774184 30.11847989 -37.10189406 26.67250534 -36.50585938 23.2265625 C-35.33930236 16.48401684 -34.1704039 9.74187894 -33 3 C-29.20957649 1.68179014 -26.15072462 0.75300834 -22.125 0.875 C-21.03227783 0.90811279 -21.03227783 0.90811279 -19.91748047 0.94189453 C-18.96832764 0.97065674 -18.96832764 0.97065674 -18 1 C-18.55373157 12.00541489 -20.57182268 22.73600585 -22.5 33.5625 C-25.3771972 49.19821584 -25.3771972 49.19821584 -27 65 C-24.87047979 61.10662121 -22.74718202 57.2098828 -20.625 53.3125 C-20.02171875 52.20970703 -19.4184375 51.10691406 -18.796875 49.97070312 C-18.21679688 48.90400391 -17.63671875 47.83730469 -17.0390625 46.73828125 C-16.50490723 45.75899658 -15.97075195 44.77971191 -15.42041016 43.77075195 C-10.40612815 33.9895408 -12.02506402 25.88825622 -14.34375 15.55078125 C-14.95099034 12.26517726 -15.12274616 9.32948951 -15 6 C-13.06629769 4.99267601 -11.12789694 3.99436712 -9.1875 3 C-8.10855469 2.443125 -7.02960937 1.88625 -5.91796875 1.3125 C-3 0 -3 0 0 0 Z " fill="#050505" transform="translate(773,892)"/>
<path d="M0 0 C4.44232157 2.18800913 7.09870616 5.44558008 8.9375 10 C12.71832837 24.24349806 8.68578977 38.19016993 2.1875 50.9375 C-2.64279995 59.15271602 -8.4993282 65.60182633 -17 70 C-17.804375 70.433125 -18.60875 70.86625 -19.4375 71.3125 C-24.73879151 72.73479772 -29.28391696 72.77709421 -34.3125 70.5 C-38.85246721 66.27677469 -40.71620788 62.80284578 -41.34765625 56.56640625 C-41.74111664 39.85289318 -36.46190459 23.86986028 -25.3125 11.25 C-18.16570257 3.77656649 -10.79981817 -2.05059839 0 0 Z " fill="#050505" transform="translate(649,890)"/>
<path d="M0 0 C4.82034244 4.48403948 6.45577923 7.91462112 7.03515625 14.37890625 C7.61033645 30.95918262 3.24666981 46.36143979 -7.8125 59.0625 C-13.99033847 65.46097556 -20.06798665 70.38102851 -29.1875 71 C-34.0151586 70.90632901 -36.45333058 69.54206386 -39.9375 66.30078125 C-45.47155542 59.05305527 -44.23105847 48.10510678 -43.3125 39.5 C-40.6866118 26.05326417 -33.26158208 11.93617799 -22.3125 3.5 C-15.02676901 -1.26001091 -8.23005234 -3.72681615 0 0 Z " fill="#040404" transform="translate(881.3125,891.5)"/>
<path d="M0 0 C3.7317133 3.28746172 5.70976881 6.45286536 6.625 11.3125 C7.57780675 28.60960719 4.9924834 44.16339843 -6.75 57.6875 C-13.2271563 64.45857768 -19.25133829 69.76574449 -28.875 70.625 C-33.5504131 70.2075524 -36.43024804 69.1702499 -39.859375 65.89453125 C-44.97474191 59.38537055 -44.26051078 51.12948396 -43.375 43.3125 C-40.85943315 26.56910346 -33.13037649 12.06434884 -19.5859375 1.72265625 C-13.27691221 -2.30129804 -6.78700157 -3.39350079 0 0 Z " fill="#030303" transform="translate(928.375,891.6875)"/>
<path d="M0 0 C-1.69611647 12.142018 -4.13610613 24.12391838 -6.54101562 36.14086914 C-8.65658297 46.7331302 -10.63962169 57.27918966 -12 68 C-24.625 71 -24.625 71 -28 71 C-29.32 60.77 -30.64 50.54 -32 40 C-32.804375 43.67125 -33.60875 47.3425 -34.4375 51.125 C-34.68943115 52.2711377 -34.9413623 53.41727539 -35.20092773 54.59814453 C-36.24543958 59.38468614 -37.27041236 64.15285453 -38 69 C-39.76949612 69.50471197 -41.54065223 70.00360685 -43.3125 70.5 C-44.29863281 70.7784375 -45.28476562 71.056875 -46.30078125 71.34375 C-49 72 -49 72 -52 72 C-51.47558587 64.44091873 -50.34772062 57.21266236 -48.75 49.8125 C-46.29372958 38.05541831 -44.39113615 26.24826073 -42.61230469 14.37426758 C-42.51147583 13.70602463 -42.41064697 13.03778168 -42.3067627 12.34928894 C-42.03262764 10.52708105 -41.76275463 8.70423343 -41.49316406 6.88134766 C-41 4 -41 4 -40 1 C-35.05 1 -30.1 1 -25 1 C-23.8015855 5.19445074 -22.72685834 9.01221236 -21.96484375 13.2421875 C-21.79533203 14.16257812 -21.62582031 15.08296875 -21.45117188 16.03125 C-21.10450074 17.95046361 -20.75815419 19.86973587 -20.41210938 21.7890625 C-20.24388672 22.70171875 -20.07566406 23.614375 -19.90234375 24.5546875 C-19.67792603 25.79968018 -19.67792603 25.79968018 -19.44897461 27.06982422 C-19.1801456 28.99602713 -19.1801456 28.99602713 -18 30 C-16.02 20.43 -14.04 10.86 -12 1 C-7.70835679 0.28472613 -4.25993627 -0.10142705 0 0 Z " fill="#060606" transform="translate(738,890)"/>
<path d="M0 0 C-0.25692627 1.25321045 -0.51385254 2.5064209 -0.77856445 3.79760742 C-1.75208792 8.55465004 -2.71734849 13.31334113 -3.68041992 18.07250977 C-4.09426702 20.11201349 -4.51020267 22.1510948 -4.9284668 24.18969727 C-7.34448076 35.97321664 -9.53891858 47.7235462 -11.08406067 59.65653992 C-11.90438941 65.90438941 -11.90438941 65.90438941 -13 67 C-15.34987262 67.23527773 -17.70556039 67.41386417 -20.0625 67.5625 C-21.35285156 67.64628906 -22.64320313 67.73007812 -23.97265625 67.81640625 C-24.97167969 67.87699219 -25.97070312 67.93757812 -27 68 C-26.56279178 58.0753735 -24.27718577 48.6277296 -22 39 C-26.95 39.495 -26.95 39.495 -32 40 C-32.03738281 40.76441406 -32.07476563 41.52882813 -32.11328125 42.31640625 C-32.65295793 51.1099616 -34.11168086 59.41349223 -36 68 C-41.24719169 69.47289591 -45.5121422 70.04482171 -51 70 C-50.34780724 65.84067457 -49.69037811 61.68221683 -49.02856445 57.52441406 C-48.80519956 56.11675154 -48.5831444 54.70888041 -48.36254883 53.30078125 C-47.23059522 46.08103156 -46.02610485 38.91785827 -44.4375 31.78125 C-42.99759506 25.26104841 -42.07365693 18.75496802 -41.3125 12.125 C-41.18294922 11.04347656 -41.05339844 9.96195313 -40.91992188 8.84765625 C-40.60748652 6.23245661 -40.30287496 3.61632409 -40 1 C-34.72 1 -29.44 1 -24 1 C-24.60171362 7.32749371 -25.62151909 13.37595652 -27.0625 19.5625 C-27.24876953 20.38041016 -27.43503906 21.19832031 -27.62695312 22.04101562 C-28.08020687 24.02835896 -28.53946212 26.01433201 -29 28 C-26.03 28 -23.06 28 -20 28 C-19.96261719 27.29617188 -19.92523437 26.59234375 -19.88671875 25.8671875 C-18.46153846 4.46153846 -18.46153846 4.46153846 -15 1 C-9.92786242 0.21294417 -5.13980027 -0.01760462 0 0 Z " fill="#050505" transform="translate(615,891)"/>
<path d="M0 0 C7.6126393 2.38653411 14.86509213 5.40535984 22.1875 8.5625 C24.47173315 9.5451174 26.75686081 10.52565856 29.04296875 11.50390625 C30.04352295 11.93517822 31.04407715 12.3664502 32.07495117 12.81079102 C35.01620168 14.00658696 37.98453691 15.00917488 41 16 C41.26477828 24.85990896 41.52577155 33.71991986 41.78230286 42.58007145 C41.90161032 46.69690865 42.02208516 50.81370387 42.14550781 54.93041992 C42.6951278 73.29105354 43.17303209 91.62855816 43 110 C41.4304765 109.70161267 39.86179059 109.39881806 38.29345703 109.09423828 C36.98297897 108.84204025 36.98297897 108.84204025 35.64602661 108.58474731 C31.59476556 107.68945624 27.75969769 106.31454223 23.875 104.875 C22.72644531 104.45927734 22.72644531 104.45927734 21.5546875 104.03515625 C19.70080915 103.36312535 17.85004947 102.68250085 16 102 C22 87 22 87 23.0546875 84.5 C29.88524537 66.43571472 27.1767772 42.02267669 19.4453125 24.77734375 C14.57921081 15.42653752 7.57812039 7.27499558 0 0 Z " fill="#050505" transform="translate(716,685)"/>
<path d="M0 0 C3.74794913 2.83008404 5.38916869 5.10887024 6.75 9.5625 C7.80157838 18.81638977 6.81181524 26.02032495 1.296875 33.8046875 C-2.67595677 38.57521383 -6.84700249 42.57409452 -12.9375 44.3125 C-14.6032703 44.36715437 -16.27214675 44.37865393 -17.9375 44.3125 C-18.05867187 45.14652344 -18.17984375 45.98054687 -18.3046875 46.83984375 C-19.28211632 53.40365424 -20.40533577 59.85552216 -21.9375 66.3125 C-27.2175 67.3025 -32.4975 68.2925 -37.9375 69.3125 C-37.34364867 61.65605967 -35.95496928 54.46442614 -34.1875 47 C-31.54212138 35.52865441 -29.40219067 24.04315448 -27.49902344 12.43041992 C-27.21140137 10.68402222 -27.21140137 10.68402222 -26.91796875 8.90234375 C-26.75192139 7.86972412 -26.58587402 6.83710449 -26.41479492 5.77319336 C-25.9375 3.3125 -25.9375 3.3125 -24.9375 1.3125 C-17.22889619 -1.73736503 -7.71161707 -3.97706038 0 0 Z " fill="#050505" transform="translate(966.9375,892.6875)"/>
<path d="M0 0 C3.80571046 3.52724384 6.25810926 6.63167122 7.1640625 11.8203125 C7.22759923 21.79557878 5.58297662 29.71432837 -1.18359375 37.34375 C-6.12702009 41.83577215 -10.64829767 44.375 -17.4375 44.375 C-18.7575 51.635 -20.0775 58.895 -21.4375 66.375 C-27.0475 67.365 -32.6575 68.355 -38.4375 69.375 C-37.86386719 66.68859375 -37.29023437 64.0021875 -36.69921875 61.234375 C-34.59882561 51.30698062 -32.66178417 41.35133294 -30.77270508 31.38183594 C-30.24237409 28.58477966 -29.70826708 25.78846146 -29.17382812 22.9921875 C-28.8305082 21.18754202 -28.48740114 19.38285603 -28.14453125 17.578125 C-27.98725052 16.7551593 -27.82996979 15.9321936 -27.66792297 15.08428955 C-26.80661943 10.52544224 -26.05584814 5.97326862 -25.4375 1.375 C-17.07293188 -1.34308016 -8.31537519 -3.93090463 0 0 Z " fill="#050505" transform="translate(564.4375,892.625)"/>
<path d="M0 0 C-0.99 3.96 -1.98 7.92 -3 12 C-7.62 12 -12.24 12 -17 12 C-17.309375 13.876875 -17.61875 15.75375 -17.9375 17.6875 C-18.56232033 21.47807664 -19.24621687 25.23108435 -20 29 C-16.04 29 -12.08 29 -8 29 C-7.90234375 35.93359375 -7.90234375 35.93359375 -8 38 C-9 39 -9 39 -11.94140625 39.09765625 C-13.13636719 39.08605469 -14.33132813 39.07445312 -15.5625 39.0625 C-17.35880859 39.04896484 -17.35880859 39.04896484 -19.19140625 39.03515625 C-20.11824219 39.02355469 -21.04507813 39.01195312 -22 39 C-22.04898438 39.71285156 -22.09796875 40.42570313 -22.1484375 41.16015625 C-22.58128523 46.70508491 -23.24028816 51.72086449 -25 57 C-18.07 56.01 -18.07 56.01 -11 55 C-10.875 62.625 -10.875 62.625 -12 66 C-15.68574858 66.67659781 -19.37383949 67.33947761 -23.0625 68 C-24.10083984 68.19078125 -25.13917969 68.3815625 -26.20898438 68.578125 C-31.55484477 69.52850018 -36.56959064 70.24648667 -42 70 C-42.2375246 63.38743246 -41.33887134 57.33806826 -40.1015625 50.8515625 C-39.90654144 49.79899261 -39.71152039 48.74642273 -39.5105896 47.66195679 C-38.88874457 44.3150175 -38.25695931 40.97004261 -37.625 37.625 C-37.20769247 35.38553599 -36.79101971 33.1459536 -36.375 30.90625 C-34.42184931 20.42193121 -34.42184931 20.42193121 -33.52032471 15.73712158 C-33.16373855 13.86133199 -32.82129567 11.98281433 -32.49090576 10.10223389 C-32.24283173 8.73944305 -32.24283173 8.73944305 -31.98974609 7.34912109 C-31.8468515 6.53559174 -31.70395691 5.72206238 -31.55673218 4.88388062 C-31.37301056 4.26220001 -31.18928894 3.64051941 -31 3 C-28.57706101 1.7885305 -26.68578022 1.69678018 -23.984375 1.46484375 C-22.98019531 1.37783203 -21.97601562 1.29082031 -20.94140625 1.20117188 C-19.88824219 1.11416016 -18.83507812 1.02714844 -17.75 0.9375 C-16.71230469 0.84662109 -15.67460938 0.75574219 -14.60546875 0.66210938 C-9.69217217 0.24482429 -4.94519457 0 0 0 Z " fill="#060606" transform="translate(696,891)"/>
<path d="M0 0 C6.71153916 2.16281364 13.29091631 4.6043371 19.875 7.125 C28.78301134 10.5106709 37.75170416 13.612175 46.8125 16.5625 C54.91576384 19.22061566 62.93042485 21.98799387 70.8125 25.25 C71.56442627 25.55494385 72.31635254 25.8598877 73.09106445 26.17407227 C77.76804291 28.1723244 81.3761783 30.39858215 85 34 C85.78930601 38.97262784 85.6002828 40.90293143 83.1875 45.3125 C81.5325128 47.34576999 79.94535749 49.24917826 78 51 C61.75297353 46.34214941 45.92988469 36.44495593 32 27 C31.4004248 26.59571777 30.80084961 26.19143555 30.18310547 25.77490234 C23.51552374 21.24180919 17.12384787 16.42106161 10.9375 11.25 C10.41325439 10.81437744 9.88900879 10.37875488 9.34887695 9.92993164 C5.79294929 6.89177374 2.90206883 3.6422295 0 0 Z " fill="#020202" transform="translate(585,709)"/>
<path d="M0 0 C0.17015625 0.76183594 0.3403125 1.52367187 0.515625 2.30859375 C5.91741278 25.32365764 20.16890558 38.00274607 39 51 C37 52 37 52 33.82421875 51.06640625 C32.44217917 50.57380822 31.06350334 50.07171611 29.6875 49.5625 C28.56710327 49.15523682 28.56710327 49.15523682 27.42407227 48.73974609 C25.80140556 48.14680698 24.18028897 47.5496128 22.56054688 46.94873047 C19.96611926 45.98744655 17.3660123 45.0426821 14.765625 44.09765625 C-19.49450923 31.50549077 -19.49450923 31.50549077 -31 20 C-31.14076767 15.22395403 -30.43903315 11.71841788 -27.9375 7.625 C-24.41968714 4.48142255 -21.49462856 3.22066351 -17 2 C-16.26265625 1.79503906 -15.5253125 1.59007812 -14.765625 1.37890625 C-9.74068606 0.12267152 -5.17076227 -0.18802772 0 0 Z " fill="#040404" transform="translate(627,607)"/>
<path d="M0 0 C-0.37250689 1.67628102 -0.74504148 3.35255589 -1.11767578 5.02880859 C-1.46281385 6.58242817 -1.80752425 8.1361428 -2.15185547 9.68994141 C-3.26828716 14.72398096 -4.39518145 19.75550947 -5.53125 24.78515625 C-5.79470215 25.95715576 -6.0581543 27.12915527 -6.32958984 28.33666992 C-6.84814082 30.64341006 -7.36917976 32.94959275 -7.89306641 35.25512695 C-9.51074878 42.47063099 -10.86382565 49.69319513 -12 57 C-8.7 57 -5.4 57 -2 57 C-1.67 60.63 -1.34 64.26 -1 68 C-2.09957031 68.06058594 -3.19914063 68.12117187 -4.33203125 68.18359375 C-12.5715512 68.64720084 -20.78631613 69.1849468 -29 70 C-28.43505378 60.36254677 -26.91257458 50.97996205 -25.1875 41.5 C-24.91686278 39.99222532 -24.64643796 38.4844125 -24.3762207 36.9765625 C-22.87539746 28.63929284 -21.33330101 20.30999763 -19.6875 12 C-19.52854248 11.19498047 -19.36958496 10.38996094 -19.20581055 9.56054688 C-18.1279227 4.25584541 -18.1279227 4.25584541 -17 2 C-13.9453125 1.3671875 -13.9453125 1.3671875 -10.125 0.875 C-8.86945312 0.70742188 -7.61390625 0.53984375 -6.3203125 0.3671875 C-3 0 -3 0 0 0 Z " fill="#060606" transform="translate(836,891)"/>
<path d="M0 0 C0.66 0 1.32 0 2 0 C-0.69533287 21.47500988 -4.12230713 42.90298694 -9 64 C-9.99 64 -10.98 64 -12 64 C-11.67 60.7 -11.34 57.4 -11 54 C-13.0728125 54.495 -13.0728125 54.495 -15.1875 55 C-18.54024395 55.80065527 -21.55175866 56.0979962 -25 56 C-24.69012383 53.74963714 -24.37700182 51.49972106 -24.0625 49.25 C-23.88847656 47.99703125 -23.71445312 46.7440625 -23.53515625 45.453125 C-23 42 -23 42 -22 38 C-15.565 37.505 -15.565 37.505 -9 37 C-8.67 34.03 -8.34 31.06 -8 28 C-11.96 28 -15.92 28 -20 28 C-19.44915905 22.1243632 -18.55242359 16.69221983 -17 11 C-12.38 11 -7.76 11 -3 11 C-2.5359375 8.5559375 -2.5359375 8.5559375 -2.0625 6.0625 C-1.125 1.125 -1.125 1.125 0 0 Z " fill="#F7F7F7" transform="translate(696,892)"/>
<path d="M0 0 C2.03254413 1.56726295 2.89085922 2.49067636 3.43359375 5.0234375 C3.45033473 15.10150449 0.84378682 24.54062923 -5.4375 32.51171875 C-8.1354059 35.08147412 -10.37082767 35.93579874 -14.0625 36.3125 C-17 36 -17 36 -18.65625 34.7265625 C-20.62195694 32.20085765 -20.46371184 29.76338185 -20.34765625 26.66015625 C-19.09544488 17.07862882 -15.10012308 7.10497711 -7.4375 0.9375 C-4.68332205 -0.12179921 -2.91994764 -0.46104436 0 0 Z " fill="#F2F2F2" transform="translate(919,910)"/>
<path d="M0 0 C1.8125 1.5 1.8125 1.5 3 4 C3.81966339 13.83596064 0.92057767 23.99662112 -5.40234375 31.7109375 C-6.54961805 32.86153723 -7.7687439 33.93975169 -9 35 C-9.495 35.495 -9.495 35.495 -10 36 C-16.35876742 36.47101981 -16.35876742 36.47101981 -18.70703125 34.74609375 C-21.09770525 31.51760046 -20.35155673 27.84201287 -20 24 C-18.35946635 14.60421639 -14.89560096 6.67783779 -7.0625 0.9609375 C-4.53047832 -0.21875442 -2.76366093 -0.28321814 0 0 Z " fill="#F9F9F9" transform="translate(872,910)"/>
<path d="M0 0 C3.28389276 4.92583914 2.50916833 10.24446431 2 16 C0.4073749 23.37185152 -2.77470749 30.44608952 -9 35 C-12.04335501 35.99782132 -14.81433504 36.42821566 -18 36 C-20.60599988 33.39400012 -20.3277682 32.1946257 -20.375 28.5625 C-20.22834219 19.83636013 -17.5054161 11.84006243 -12 5 C-7.99041758 1.46774882 -5.44598701 -0.5445987 0 0 Z " fill="#F7F7F7" transform="translate(643,910)"/>
<path d="M0 0 C7.94885515 2.51016478 14.20594608 6.21854771 18.22265625 13.85546875 C19.8701056 18.40044208 20.40376563 23.22227987 21 28 C20.34 28.33 19.68 28.66 19 29 C9.63437864 22.79679624 3.04943986 14.96661911 0 4 C0 2.68 0 1.36 0 0 Z " fill="#080808" transform="translate(889,616)"/>
<path d="M0 0 C0.68523664 8.946145 -1.01192728 16.38686075 -6.5 23.625 C-9 26 -9 26 -13 26 C-13.60561801 16.46151637 -10.71665844 9.56074181 -5 2 C-2 0 -2 0 0 0 Z " fill="#0A0A0A" transform="translate(917,915)"/>
<path d="M0 0 C3.875 0.875 3.875 0.875 5 2 C5.79417504 9.09084855 5.50051533 14.58719475 1.484375 20.57421875 C-0.28313772 22.27196123 -1.60902036 22.61683019 -4 23 C-2.7399707 15.31918309 -1.41621567 7.65359108 0 0 Z " fill="#F0F0F0" transform="translate(955,903)"/>
<path d="M0 0 C1.9375 0.375 1.9375 0.375 4 1 C5.88808329 4.77616658 5.45356603 9.15238544 4.46875 13.1640625 C3.05203429 17.27561786 1.52501291 20.27095775 -2 23 C-2.66 23 -3.32 23 -4 23 C-3.52651786 19.54086334 -3.04525236 16.08285411 -2.5625 12.625 C-2.42779297 11.64015625 -2.29308594 10.6553125 -2.15429688 9.640625 C-2.02216797 8.69960938 -1.89003906 7.75859375 -1.75390625 6.7890625 C-1.63345947 5.91975098 -1.5130127 5.05043945 -1.38891602 4.15478516 C-1 2 -1 2 0 0 Z " fill="#F2F2F2" transform="translate(553,903)"/>
<path d="M0 0 C3.08089673 2.77280706 4.68775452 5.06326356 6 9 C3.75 11.5 3.75 11.5 1 14 C-0.32 14 -1.64 14 -3 14 C-3.34615998 8.34605369 -2.43425238 4.96993194 0 0 Z " fill="#0E0E0E" transform="translate(630,927)"/>
<path d="M0 0 C-1.49170266 4.9723422 -3.60457417 9.41845739 -6 14 C-6.33 14 -6.66 14 -7 14 C-6.94008594 12.04081032 -6.85132862 10.08248471 -6.75 8.125 C-6.68039062 6.48917969 -6.68039062 6.48917969 -6.609375 4.8203125 C-6 2 -6 2 -4.078125 0.6171875 C-2 0 -2 0 0 0 Z " fill="#212121" transform="translate(958,940)"/>
<path d="M0 0 C0.33 0 0.66 0 1 0 C2.04819354 7.45067301 1.91318843 13.7109102 0 21 C-0.66 20.34 -1.32 19.68 -2 19 C-2.66 19.33 -3.32 19.66 -4 20 C-3.79503906 19.47792969 -3.59007812 18.95585938 -3.37890625 18.41796875 C-1.13683951 12.29251368 -0.35212938 6.49617989 0 0 Z " fill="#CDCDCD" transform="translate(571,905)"/>
<path d="M0 0 C0.33 0 0.66 0 1 0 C0.93941406 0.59425781 0.87882813 1.18851563 0.81640625 1.80078125 C0.16982122 8.19699929 -0.42784346 14.59671614 -1 21 C-1.33 21 -1.66 21 -2 21 C-2.34179688 17.97265625 -2.34179688 17.97265625 -2.68359375 14.9453125 C-2.91292961 12.92595684 -2.91292961 12.92595684 -4 11 C-3.22265625 8.3984375 -3.22265625 8.3984375 -2.0625 5.375 C-1.68222656 4.37210938 -1.30195312 3.36921875 -0.91015625 2.3359375 C-0.60980469 1.56507813 -0.30945313 0.79421875 0 0 Z " fill="#C5C5C5" transform="translate(886,925)"/>
<path d="M0 0 C0.33 0.66 0.66 1.32 1 2 C1.66 2 2.32 2 3 2 C2.67 4.64 2.34 7.28 2 10 C1.01 9.34 0.02 8.68 -1 8 C-0.67 5.36 -0.34 2.72 0 0 Z " fill="#DBDBDB" transform="translate(934,920)"/>
</svg>
